<svg xmlns="http://www.w3.org/2000/svg" viewBox="0 0 100 60" width="1200" height="720">
  <defs>
    <linearGradient id="bg" x1="0%" y1="0%" x2="100%" y2="100%">
      <stop offset="0%" style="stop-color:#fff8e1"/>
      <stop offset="100%" style="stop-color:#ffecb3"/>
    </linearGradient>
  </defs>

  <!-- Background -->
  <rect width="100" height="60" fill="url(#bg)"/>

  <!-- Decorative border -->
  <rect x="3" y="3" width="94" height="54" rx="2" fill="none" stroke="#A9010C" stroke-width="0.3" opacity="0.3"/>

  <!-- Wine color accent -->
  <g color="#A9010C">
    <!-- Icon centered -->
    <g transform="translate(0, -10) scale(0.7)" opacity="0.8">
      <circle cx="50" cy="50" r="18" fill="none" stroke="currentColor" stroke-width="2"/>
           <path d="M50 35 L50 52" stroke="currentColor" stroke-width="2.5" stroke-linecap="round"/>
           <path d="M50 52 L60 58" stroke="currentColor" stroke-width="2" stroke-linecap="round"/>
           <circle cx="50" cy="50" r="2" fill="currentColor"/>
           <path d="M44 32 L50 28 L56 32" fill="none" stroke="currentColor" stroke-width="1.5" opacity="0.5"/>
    </g>

    <!-- Decorative vines -->
    
  <path d="M0 85 Q15 80 25 85 Q35 90 45 85 Q55 80 65 85 Q75 90 85 85 Q95 80 100 85"
        fill="none" stroke="currentColor" stroke-width="0.8" opacity="0.15"/>
  <path d="M0 90 Q15 85 25 90 Q35 95 45 90 Q55 85 65 90 Q75 95 85 90 Q95 85 100 90"
        fill="none" stroke="currentColor" stroke-width="0.8" opacity="0.1"/>
  <circle cx="12" cy="82" r="2" fill="currentColor" opacity="0.08"/>
  <circle cx="38" cy="88" r="1.5" fill="currentColor" opacity="0.08"/>
  <circle cx="62" cy="82" r="2.5" fill="currentColor" opacity="0.06"/>
  <circle cx="88" cy="87" r="1.5" fill="currentColor" opacity="0.08"/>

  </g>

  <!-- Title -->
  <text x="50" y="38" text-anchor="middle" font-family="serif" font-size="4.5" font-weight="bold" fill="#A9010C" opacity="0.9">Co je to terroir a</text>
  <text x="50" y="44" text-anchor="middle" font-family="serif" font-size="4.5" font-weight="bold" fill="#A9010C" opacity="0.9">proč na něm záleží</text>

  <!-- Brand -->
  <text x="50" y="54" text-anchor="middle" font-family="sans-serif" font-size="2.5" fill="#A9010C" opacity="0.4">U Štipčáků — blog o víně</text>
</svg>